# This file uses centimeters as units for non-parametric coordinates.

mtllib doos.mtl
g default
v -3.986259 -0.000533 3.986259
v 3.986259 -0.000533 3.986259
v -3.986259 7.971985 3.986259
v 3.986259 7.971985 3.986259
v -3.986259 7.971985 -3.986259
v 3.986259 7.971985 -3.986259
v -3.986259 -0.000533 -3.986259
v 3.986259 -0.000533 -3.986259
v -3.986259 7.652862 3.986259
v -3.986259 7.652861 -3.986259
v 3.986259 7.652861 -3.986259
v 3.986259 7.652862 3.986259
v -3.986259 7.971985 -3.666474
v -3.986259 7.652861 -3.666474
v -3.986259 -0.000533 -3.666471
v 3.986259 -0.000533 -3.666471
v 3.986259 7.652861 -3.666471
v 3.986259 7.971985 -3.666474
v -3.986259 7.971985 3.651608
v -3.986259 7.652861 3.651608
v -3.986259 -0.000533 3.651605
v 3.986259 -0.000533 3.651605
v 3.986259 7.652861 3.651605
v 3.986259 7.971985 3.651608
v -3.986259 0.295484 3.986259
v -3.986259 0.295484 3.651605
v -3.986259 0.295484 -3.666471
v -3.986259 0.295484 -3.986259
v 3.986259 0.295484 -3.986259
v 3.986259 0.295484 -3.666471
v 3.986259 0.295484 3.651605
v 3.986259 0.295484 3.986259
v -3.705009 -0.000533 3.986259
v -3.705005 0.295484 3.986259
v -3.705005 7.652862 3.986259
v -3.705009 7.971985 3.986259
v -3.705005 7.971985 3.651608
v -3.705005 7.971985 -3.666474
v -3.705009 7.971985 -3.986259
v -3.705009 7.652861 -3.986259
v -3.705009 0.295484 -3.986259
v -3.705009 -0.000533 -3.986259
v -3.705009 -0.000533 -3.666471
v -3.705009 -0.000533 3.651606
v 3.666831 7.652861 3.986259
v 3.666831 0.295484 3.986259
v 3.666833 -0.000533 3.986259
v 3.666833 -0.000533 3.651605
v 3.666833 -0.000533 -3.666471
v 3.666833 -0.000533 -3.986259
v 3.666833 0.295484 -3.986259
v 3.666833 7.652861 -3.986259
v 3.666833 7.971985 -3.986259
v 3.666831 7.971985 -3.666474
v 3.666831 7.971985 3.651608
v 3.666833 7.971985 3.986259
v 3.879506 0.359639 3.587794
v 3.879506 7.588707 3.587794
v 3.879506 0.359639 -3.602659
v 3.879506 7.588706 -3.602659
v -3.800286 7.582664 -3.596652
v -3.800286 0.365681 -3.596649
v -3.800286 0.365681 3.581783
v -3.800286 7.582665 3.581785
v -3.986259 7.971985 -4.073427
v -3.705009 7.971985 -4.073427
v -3.705009 7.652861 -4.073427
v -3.986259 7.652861 -4.073427
v 3.666833 7.652861 -4.073427
v 3.666833 7.971985 -4.073427
v 3.986259 7.971985 -4.073427
v 3.986259 7.652861 -4.073427
v -3.705005 7.652862 4.073427
v -3.986259 7.652862 4.073427
v -3.705009 7.971985 4.073427
v -3.986259 7.971985 4.073427
v 3.666833 7.971985 4.073427
v 3.666831 7.652861 4.073427
v 3.986259 7.652862 4.073427
v 3.986259 7.971985 4.073427
v -3.986259 -0.000533 4.143196
v -3.705009 -0.000533 4.143196
v -3.705005 0.295484 4.143196
v -3.986259 0.295484 4.143196
v 3.666831 0.295484 4.143196
v 3.666833 -0.000533 4.143196
v 3.986259 -0.000533 4.143196
v 3.986259 0.295484 4.143196
v -3.986259 0.295484 -4.143196
v -3.705009 0.295484 -4.143196
v -3.705009 -0.000533 -4.143196
v -3.986259 -0.000533 -4.143196
v 3.666833 -0.000533 -4.143196
v 3.666833 0.295484 -4.143196
v 3.986259 0.295484 -4.143196
v 3.986259 -0.000533 -4.143196
vt 0.541544 0.924745
vt 0.539654 0.924745
vt 0.535036 1.009415
vt 0.916396 0.081115
vt 0.466527 0.922485
vt 0.533342 0.922485
vt 0.112354 0.063744
vt 0.924777 0.063744
vt 0.112354 0.876167
vt 0.924777 0.876167
vt 0.539699 0.924745
vt 0.533383 1.009415
vt 0.460301 0.924745
vt 0.462241 1.009415
vt 0.959804 0.011244
vt -0.154533 0.917021
vt 0.039740 0.035907
vt 0.942628 0.036055
vt -0.407422 1.017445
vt 0.014591 0.023618
vt -0.316202 1.009415
vt 0.146387 0.820253
vt 1.867104 -0.000633
vt -0.408469 0.924745
vt 0.112354 0.096332
vt 0.924777 0.096332
vt 1.408469 0.924745
vt -0.892708 0.035495
vt 0.916404 0.820245
vt 0.462241 1.009415
vt 0.460587 1.009415
vt 0.146379 0.113445
vt 0.999480 0.010725
vt 0.458456 0.924745
vt 0.112354 0.842065
vt 0.924777 0.842065
vt 0.541544 0.924745
vt -0.407440 1.020004
vt 0.916396 0.113436
vt -0.316202 1.009415
vt 0.465085 1.006819
vt 1.010899 0.883007
vt 1.203572 1.002786
vt 1.203443 0.912493
vt 0.039603 0.869130
vt 0.539654 0.924745
vt 0.539699 1.006819
vt -0.881290 0.907777
vt 1.420411 1.044615
vt 0.026010 0.895900
vt 0.534914 0.924745
vt 0.141014 0.876167
vt -0.415143 1.006819
vt 0.926458 0.011681
vt 0.173543 0.081122
vt 0.173544 0.113444
vt 0.173552 0.820253
vt -0.322182 0.922485
vt 0.071592 0.035912
vt -0.415144 0.924745
vt 0.141014 0.063744
vt 0.141014 0.096332
vt 0.141014 0.842065
vt 0.462280 0.922485
vt 1.415143 1.006819
vt 1.415144 0.924745
vt 0.892226 0.876167
vt 0.892226 0.842065
vt 0.892226 0.096332
vt 1.415144 1.006819
vt 0.906316 0.869273
vt 1.317804 1.009415
vt 0.885553 0.851132
vt 0.885552 0.820246
vt 0.885545 0.113437
vt 1.317804 1.009413
vt 0.885545 0.081115
vt 0.462281 1.009415
vt 0.052462 0.023122
vt 1.317804 0.922483
vt 0.906453 0.036050
vt 0.462281 1.009415
vt 1.317804 0.922485
vt 0.462281 0.922485
vt 0.460587 1.009415
vt 0.533343 1.009415
vt 0.916404 0.851131
vt 0.533383 0.922485
vt 0.533342 1.009415
vt 0.529096 0.922485
vt -0.322181 0.922488
vt 0.173551 0.851139
vt 0.529096 0.922485
vt -0.322182 1.009415
vt 0.529096 1.009415
vt -0.322181 1.009418
vt 0.529096 1.009415
vt 0.535036 0.922485
vt 0.466527 0.922485
vt 0.535036 0.922485
vt -0.316201 0.922484
vt 0.535036 1.009415
vt 1.311824 1.009415
vt 1.311824 0.922485
vt 0.460587 0.922485
vt 1.311824 1.009416
vt 0.533343 0.922485
vt 0.460587 0.922485
vt 0.533382 0.922485
vt -0.316202 0.922485
vt 0.533382 1.009415
vt 1.311824 0.922486
vt 0.462240 0.922485
vt 0.466527 1.009415
vt 0.462241 0.922485
vt 0.146387 0.851140
vt 0.146379 0.081123
vt 0.466527 1.009415
vt 0.892226 0.063744
vt 0.460346 1.006819
vt 1.415144 0.924745
vt 0.460346 0.924745
vt 0.063881 0.895404
vt 0.460346 1.006819
vt 0.460347 0.924745
vt 1.420428 1.042056
vt 0.942491 0.869279
vt 0.539654 1.006819
vt 0.458456 0.924745
vt 0.534915 1.006819
vt 0.937877 0.883963
vt 0.071455 0.869135
vt 0.534915 0.924745
vt -0.415144 1.006819
vt 0.534915 1.006819
vt -0.415144 0.924745
vt 0.541544 1.006819
vt 1.353109 1.019819
vt 0.458456 1.006819
vt 0.539654 1.006819
vt -0.408469 1.006819
vt 0.541544 1.006819
vt 0.460301 1.006819
vt 1.408469 1.006819
vt 0.460301 1.006819
vt 0.465085 0.924745
vt -0.408469 1.006819
vt 0.539699 1.006819
vt 0.458456 1.006819
vt 1.408469 1.006819
vt 0.465085 1.006819
vt 0.539699 0.924745
vt 1.408469 0.924745
vt -0.408469 0.924745
vt 0.465085 0.924745
vt 0.460301 0.924745
vt 1.878522 0.871649
vt -0.154404 1.007312
vt 0.971222 0.883527
vt 1.353400 0.921403
vt -0.325996 1.011535
vt -0.325703 0.913120
vt -0.013667 0.896419
vt 1.421218 0.929376
vt 1.421200 0.931935
vt -0.406633 0.904765
vt -0.025085 0.024137
vt -0.406651 0.907324
vt -0.025085 0.024137
vt -0.013667 0.896419
vt -0.881290 0.907777
vt -0.892708 0.035495
vt 1.867104 -0.000633
vt 1.878522 0.871649
vt 1.010899 0.883007
vt 0.999480 0.010725
vt 0.466527 0.922485
vt 0.529096 0.922485
vt 0.529096 1.009415
vt 0.466527 1.009415
vt 0.466527 0.922485
vt 0.529096 0.922485
vt 0.529096 1.009415
vt 0.466527 1.009415
vt 0.462280 0.922485
vt 0.533343 0.922485
vt 0.533343 1.009415
vt 0.462281 1.009415
vt 0.462281 0.922485
vt 0.533342 0.922485
vt 0.533342 1.009415
vt 0.462281 1.009415
vt -0.322182 0.922485
vt 1.317804 0.922485
vt 1.317804 1.009415
vt -0.322182 1.009415
vt -0.322181 0.922488
vt 1.317804 0.922483
vt 1.317804 1.009413
vt -0.322181 1.009418
vt 0.465085 0.924745
vt 0.534914 0.924745
vt 0.534915 1.006819
vt 0.465085 1.006819
vt 0.465085 0.924745
vt 0.534915 0.924745
vt 0.534915 1.006819
vt 0.465085 1.006819
vt 0.460347 0.924745
vt 0.539654 0.924745
vt 0.539654 1.006819
vt 0.460346 1.006819
vt 0.460346 0.924745
vt 0.539654 0.924745
vt 0.539654 1.006819
vt 0.460346 1.006819
vt -0.415144 0.924745
vt 1.415144 0.924745
vt 1.415143 1.006819
vt -0.415143 1.006819
vt -0.415144 0.924745
vt 1.415144 0.924745
vt 1.415144 1.006819
vt -0.415144 1.006819
vn 0.000000 0.000000 1.000000
vn 0.000000 0.000000 1.000000
vn 0.000000 0.000000 1.000000
vn 0.000000 0.000000 1.000000
vn 0.000000 1.000000 0.000000
vn 0.000000 1.000000 0.000000
vn 0.000000 1.000000 0.000000
vn 0.000000 1.000000 0.000000
vn 0.000000 0.000000 -1.000000
vn 0.000000 0.000000 -1.000000
vn 0.000000 0.000000 -1.000000
vn 0.000000 0.000000 -1.000000
vn 0.000000 -1.000000 0.000000
vn 0.000000 -1.000000 0.000000
vn 0.000000 -1.000000 0.000000
vn 0.000000 -1.000000 0.000000
vn 1.000000 0.000000 0.000000
vn 1.000000 0.000000 0.000000
vn 1.000000 0.000000 0.000000
vn 1.000000 0.000000 0.000000
vn -1.000000 0.000000 0.000000
vn -1.000000 0.000000 0.000000
vn -1.000000 0.000000 0.000000
vn -1.000000 0.000000 0.000000
vn -1.000000 0.000000 0.000000
vn -1.000000 0.000000 0.000000
vn -1.000000 0.000000 0.000000
vn -1.000000 0.000000 0.000000
vn 0.000000 0.000000 -1.000000
vn 0.000000 0.000000 -1.000000
vn 0.000000 0.000000 -1.000000
vn 0.000000 0.000000 -1.000000
vn 1.000000 0.000000 0.000000
vn 1.000000 0.000000 0.000000
vn 1.000000 0.000000 0.000000
vn 1.000000 0.000000 0.000000
vn 0.000000 0.000000 1.000000
vn 0.000000 0.000000 1.000000
vn 0.000000 0.000000 1.000000
vn 0.000000 0.000000 1.000000
vn -1.000000 -0.000000 0.000000
vn -1.000000 -0.000000 0.000000
vn -1.000000 0.000000 0.000000
vn -1.000000 0.000000 0.000000
vn -1.000000 0.000000 0.000000
vn -1.000000 0.000000 0.000000
vn -1.000000 -0.000000 0.000000
vn -1.000000 -0.000000 0.000000
vn 0.000000 -1.000000 0.000000
vn 0.000000 -1.000000 0.000000
vn 0.000000 -1.000000 0.000000
vn 0.000000 -1.000000 0.000000
vn 1.000000 0.000000 0.000000
vn 1.000000 0.000000 0.000000
vn 1.000000 0.000000 0.000000
vn 1.000000 0.000000 0.000000
vn 1.000000 -0.000000 0.000000
vn 1.000000 -0.000000 0.000000
vn 1.000000 -0.000000 0.000000
vn 1.000000 -0.000001 0.000000
vn 0.000000 1.000000 0.000000
vn 0.000000 1.000000 0.000000
vn 0.000000 1.000000 0.000000
vn 0.000000 1.000000 0.000000
vn -1.000000 -0.000000 0.000000
vn -1.000000 -0.000000 0.000000
vn -1.000000 -0.000000 0.000000
vn -1.000000 -0.000000 0.000000
vn 0.000000 0.000000 -1.000000
vn 0.000000 0.000000 -1.000000
vn 0.000000 0.000000 -1.000000
vn 0.000000 0.000000 -1.000000
vn 1.000000 0.000000 0.000000
vn 1.000000 0.000000 0.000000
vn 1.000000 0.000000 0.000000
vn 1.000000 0.000000 0.000000
vn 0.000000 0.000000 1.000000
vn 0.000000 0.000000 1.000000
vn 0.000000 0.000000 1.000000
vn 0.000000 0.000000 1.000000
vn 0.000000 0.000000 1.000000
vn 0.000000 0.000000 1.000000
vn 0.000000 0.000000 1.000000
vn 0.000000 0.000000 1.000000
vn -0.000000 0.000000 1.000000
vn -0.000000 0.000000 1.000000
vn -0.000000 0.000000 1.000000
vn -0.000000 0.000000 1.000000
vn 0.000000 0.000000 1.000000
vn 0.000000 0.000000 1.000000
vn 0.000000 0.000000 1.000000
vn 0.000000 0.000000 1.000000
vn 0.000000 1.000000 0.000000
vn 0.000000 1.000000 0.000000
vn 0.000000 1.000000 0.000000
vn 0.000000 1.000000 0.000000
vn 0.000000 1.000000 0.000000
vn 0.000000 1.000000 0.000000
vn 0.000000 1.000000 0.000000
vn 0.000000 1.000000 0.000000
vn 0.000000 0.000000 -1.000000
vn 0.000000 0.000000 -1.000000
vn 0.000000 0.000000 -1.000000
vn 0.000000 0.000000 -1.000000
vn 0.000000 0.000000 -1.000000
vn 0.000000 0.000000 -1.000000
vn 0.000000 0.000000 -1.000000
vn 0.000000 0.000000 -1.000000
vn 0.000000 0.000000 -1.000000
vn 0.000000 0.000000 -1.000000
vn 0.000000 0.000000 -1.000000
vn 0.000000 0.000000 -1.000000
vn 0.000000 -1.000000 0.000000
vn 0.000000 -1.000000 0.000000
vn 0.000000 -1.000000 0.000000
vn 0.000000 -1.000000 0.000000
vn 0.000000 -1.000000 0.000000
vn 0.000000 -1.000000 0.000000
vn 0.000000 -1.000000 0.000000
vn 0.000000 -1.000000 0.000000
vn 0.513076 0.000000 -0.858343
vn 0.513076 0.000000 -0.858343
vn 0.513076 0.000000 -0.858343
vn 0.513076 0.000000 -0.858343
vn 0.515104 0.857127 0.000000
vn 0.515104 0.857127 0.000000
vn 0.515104 0.857127 0.000000
vn 0.515104 0.857127 0.000000
vn 0.513077 0.000000 0.858343
vn 0.513077 0.000000 0.858343
vn 0.513077 0.000000 0.858343
vn 0.513077 0.000000 0.858343
vn 0.515100 -0.857130 0.000000
vn 0.515100 -0.857130 0.000000
vn 0.515100 -0.857130 0.000000
vn 0.515100 -0.857130 0.000000
vn -0.351485 0.000000 0.936193
vn -0.351485 0.000000 0.936193
vn -0.351485 0.000000 0.936193
vn -0.351485 0.000000 0.936193
vn -0.353137 0.935571 0.000000
vn -0.353137 0.935571 0.000000
vn -0.353137 0.935571 0.000000
vn -0.353137 0.935571 0.000000
vn -0.351487 0.000000 -0.936193
vn -0.351487 0.000000 -0.936193
vn -0.351487 0.000000 -0.936193
vn -0.351487 0.000000 -0.936193
vn -0.353136 -0.935572 0.000000
vn -0.353136 -0.935572 0.000000
vn -0.353136 -0.935572 0.000000
vn -0.353136 -0.935572 0.000000
vn 0.000000 1.000000 0.000000
vn 0.000000 1.000000 0.000000
vn 0.000000 1.000000 0.000000
vn 0.000000 1.000000 0.000000
vn 0.000000 -1.000000 0.000000
vn 0.000000 -1.000000 0.000000
vn 0.000000 -1.000000 0.000000
vn 0.000000 -1.000000 0.000000
vn -1.000000 0.000000 0.000000
vn -1.000000 0.000000 0.000000
vn -1.000000 0.000000 0.000000
vn -1.000000 0.000000 0.000000
vn 0.000000 1.000000 0.000000
vn 0.000000 1.000000 0.000000
vn 0.000000 1.000000 0.000000
vn 0.000000 1.000000 0.000000
vn 1.000000 0.000000 0.000000
vn 1.000000 0.000000 0.000000
vn 1.000000 0.000000 0.000000
vn 1.000000 0.000000 0.000000
vn 0.000000 -1.000000 0.000000
vn 0.000000 -1.000000 0.000000
vn 0.000000 -1.000000 0.000000
vn 0.000000 -1.000000 0.000000
vn 0.000000 1.000000 0.000000
vn 0.000000 1.000000 0.000000
vn 0.000000 1.000000 0.000000
vn 0.000000 1.000000 0.000000
vn 0.000000 -1.000000 0.000000
vn 0.000000 -1.000000 0.000000
vn 0.000000 -1.000000 0.000000
vn 0.000000 -1.000000 0.000000
vn 0.000000 -1.000000 0.000000
vn 0.000000 -1.000000 0.000000
vn 0.000000 -1.000000 0.000000
vn 0.000000 -1.000000 0.000000
vn 0.000000 1.000000 0.000000
vn 0.000000 1.000000 0.000000
vn 0.000000 1.000000 0.000000
vn 0.000000 1.000000 0.000000
vn -1.000000 0.000000 0.000000
vn -1.000000 0.000000 0.000000
vn -1.000000 0.000000 0.000000
vn -1.000000 0.000000 0.000000
vn 0.000001 -1.000000 0.000000
vn 0.000001 -1.000000 0.000000
vn 0.000001 -1.000000 0.000000
vn 0.000001 -1.000000 0.000000
vn 1.000000 0.000000 0.000000
vn 1.000000 0.000000 0.000000
vn 1.000000 0.000000 0.000000
vn 1.000000 0.000000 0.000000
vn 0.000000 1.000000 0.000000
vn 0.000000 1.000000 0.000000
vn 0.000000 1.000000 0.000000
vn 0.000000 1.000000 0.000000
vn -0.000000 -1.000000 0.000000
vn -0.000000 -1.000000 0.000000
vn -0.000000 -1.000000 0.000000
vn -0.000000 -1.000000 0.000000
vn 0.000000 1.000000 0.000000
vn 0.000000 1.000000 0.000000
vn 0.000000 1.000000 0.000000
vn 0.000000 1.000000 0.000000
vn 0.000000 -1.000000 0.000000
vn 0.000000 -1.000000 0.000000
vn 0.000000 -1.000000 0.000000
vn 0.000000 -1.000000 0.000000
vn 0.000000 1.000000 0.000000
vn 0.000000 1.000000 0.000000
vn 0.000000 1.000000 0.000000
vn 0.000000 1.000000 0.000000
vn -1.000000 0.000000 0.000000
vn -1.000000 0.000000 0.000000
vn -1.000000 0.000000 0.000000
vn -1.000000 0.000000 0.000000
vn 0.000000 -1.000000 0.000000
vn 0.000000 -1.000000 0.000000
vn 0.000000 -1.000000 0.000000
vn 0.000000 -1.000000 0.000000
vn 1.000000 0.000000 0.000000
vn 1.000000 0.000000 0.000000
vn 1.000000 0.000000 0.000000
vn 1.000000 0.000000 0.000000
vn 0.000000 1.000000 0.000000
vn 0.000000 1.000000 0.000000
vn 0.000000 1.000000 0.000000
vn 0.000000 1.000000 0.000000
vn 0.000000 -1.000000 0.000000
vn 0.000000 -1.000000 0.000000
vn 0.000000 -1.000000 0.000000
vn 0.000000 -1.000000 0.000000
vn 0.000000 1.000000 0.000000
vn 0.000000 1.000000 0.000000
vn 0.000000 1.000000 0.000000
vn 0.000000 1.000000 0.000000
vn 0.000000 1.000000 0.000000
vn 0.000000 1.000000 0.000000
vn 0.000000 1.000000 0.000000
vn 0.000000 1.000000 0.000000
vn 0.000000 -1.000000 0.000000
vn 0.000000 -1.000000 0.000000
vn 0.000000 -1.000000 0.000000
vn 0.000000 -1.000000 0.000000
vn -1.000000 0.000000 0.000000
vn -1.000000 0.000000 0.000000
vn -1.000000 0.000000 0.000000
vn -1.000000 0.000000 0.000000
vn 0.000000 1.000000 0.000000
vn 0.000000 1.000000 0.000000
vn 0.000000 1.000000 0.000000
vn 0.000000 1.000000 0.000000
vn 1.000000 0.000000 0.000000
vn 1.000000 0.000000 0.000000
vn 1.000000 0.000000 0.000000
vn 1.000000 0.000000 0.000000
vn 0.000000 -1.000000 0.000000
vn 0.000000 -1.000000 0.000000
vn 0.000000 -1.000000 0.000000
vn 0.000000 -1.000000 0.000000
vn 0.000000 1.000000 0.000000
vn 0.000000 1.000000 0.000000
vn 0.000000 1.000000 0.000000
vn 0.000000 1.000000 0.000000
vn 0.000000 -1.000000 0.000000
vn 0.000000 -1.000000 0.000000
vn 0.000000 -1.000000 0.000000
vn 0.000000 -1.000000 0.000000
s 1
g pCube1
usemtl initialShadingGroup
f 81/201/1 82/202/2 83/203/3 84/204/4
s 2
f 3/117/5 36/55/6 37/56/7 19/32/8
s 3
f 89/205/9 90/206/10 91/207/11 92/208/12
s 4
f 21/35/13 44/63/14 33/52/15 1/9/16
s 5
f 2/129/17 22/37/18 31/142/19 32/139/20
s 6
f 25/137/21 26/149/22 21/34/23 1/1/24
f 19/31/25 20/105/26 9/98/27 3/3/28
s 8
f 65/177/29 66/178/30 67/179/31 68/180/32
s 5
f 12/108/33 23/100/34 24/102/35 4/85/36
s 9
f 74/181/37 73/182/38 75/183/39 76/184/40
s 6
f 10/115/41 14/109/42 13/111/43 5/14/44
f 7/13/45 15/152/46 27/148/47 28/145/48
s 4
f 7/7/49 42/61/50 43/62/51 15/25/52
s 5
f 29/47/53 30/143/54 16/156/55 8/11/56
f 18/30/57 17/113/58 11/88/59 6/12/60
s 2
f 13/22/61 38/57/62 39/92/63 5/116/64
s 6
f 13/21/43 14/110/42 20/104/26 19/103/25
f 26/150/22 27/147/47 15/24/46 21/153/23
s 4
f 15/25/52 43/62/51 44/63/14 21/35/13
s 5
f 30/144/54 31/141/19 22/154/18 16/27/55
f 24/40/35 23/101/34 17/112/58 18/106/57
s 2
f 19/32/8 37/56/7 38/57/62 13/22/61
s 6
f 20/162/26 26/160/22 25/138/21 9/161/27
s off
f 61/173/65 62/174/66 63/175/67 64/176/68
s 6
f 28/44/48 27/43/47 14/158/42 10/16/41
s 13
f 10/17/69 40/59/70 41/132/71 28/45/72
s 5
f 17/168/58 30/165/54 29/126/53 11/19/59
s off
f 58/169/73 57/170/74 59/171/75 60/172/76
s 5
f 32/164/20 31/49/19 23/38/34 12/166/33
s 14
f 25/159/77 34/131/78 35/54/79 9/15/80
s 1
f 85/212/81 86/209/82 87/210/83 88/211/84
s 14
f 45/79/85 46/123/86 32/50/87 12/20/88
s 9
f 77/188/89 78/185/90 79/186/91 80/187/92
s 2
f 55/75/93 56/77/94 4/4/95 24/39/96
f 54/74/97 55/75/93 24/39/96 18/29/98
f 53/73/99 54/74/97 18/29/98 6/87/100
s 8
f 69/192/101 70/189/102 71/190/103 72/191/104
s 13
f 51/71/105 52/81/106 11/18/107 29/127/108
s 3
f 93/216/109 94/213/110 95/214/111 96/215/112
s 4
f 49/69/113 50/119/114 8/8/115 16/26/116
f 48/68/117 49/69/113 16/26/116 22/36/118
f 47/67/119 48/68/117 22/36/118 2/10/120
s 14
f 35/54/79 34/131/78 46/123/86 45/79/85
s 1
f 83/220/3 82/217/2 86/218/82 85/219/81
s 4
f 33/52/15 44/63/14 48/68/117 47/67/119
f 44/63/14 43/62/51 49/69/113 48/68/117
f 43/62/51 42/61/50 50/119/114 49/69/113
s 3
f 91/224/11 90/221/10 94/222/110 93/223/109
s 13
f 41/132/71 40/59/70 52/81/106 51/71/105
s 8
f 67/196/31 66/193/30 70/194/102 69/195/101
s 2
f 39/92/63 38/57/62 54/74/97 53/73/99
f 38/57/62 37/56/7 55/75/93 54/74/97
f 37/56/7 36/55/6 56/77/94 55/75/93
s 9
f 75/200/39 73/197/38 78/198/90 77/199/89
s off
f 23/167/121 31/163/122 57/170/123 58/169/124
f 31/163/125 30/48/126 59/171/127 57/170/128
f 30/48/129 17/28/130 60/172/131 59/171/132
f 17/28/133 23/167/134 58/169/135 60/172/136
f 14/23/137 27/157/138 62/174/139 61/173/140
f 27/157/141 26/42/142 63/175/143 62/174/144
f 26/42/145 20/33/146 64/176/147 63/175/148
f 20/33/149 14/23/150 61/173/151 64/176/152
f 5/5/153 39/93/154 66/178/155 65/177/156
f 40/95/157 10/114/158 68/180/159 67/179/160
f 10/114/161 5/5/162 65/177/163 68/180/164
f 53/99/165 6/90/166 71/182/167 70/181/168
f 6/97/169 11/118/170 72/184/171 71/183/172
f 11/118/173 52/99/174 69/181/175 72/184/176
f 39/64/177 53/107/178 70/186/179 66/185/180
f 52/107/181 40/86/182 67/187/183 69/186/184
f 9/86/185 35/78/186 73/188/187 74/187/188
f 36/84/189 3/6/190 76/190/191 75/189/192
f 3/6/193 9/89/194 74/191/195 76/190/196
f 45/89/197 12/82/198 79/192/199 78/191/200
f 12/58/201 4/83/202 80/194/203 79/193/204
f 4/72/205 56/94/206 77/196/207 80/195/208
f 35/91/209 45/80/210 78/198/211 73/197/212
f 56/76/213 36/96/214 75/200/215 77/199/216
f 1/155/217 33/51/218 82/202/219 81/201/220
f 34/130/221 25/41/222 84/204/223 83/203/224
f 25/41/225 1/155/226 81/201/227 84/204/228
f 47/146/229 2/133/230 87/206/231 86/205/232
f 2/135/233 32/151/234 88/208/235 87/207/236
f 32/151/237 46/146/238 85/205/239 88/208/240
f 33/125/241 47/2/242 86/210/243 82/209/244
f 46/2/245 34/140/246 83/211/247 85/210/248
f 28/140/249 41/124/250 90/212/251 89/211/252
f 42/122/253 7/46/254 92/214/255 91/213/256
f 7/46/257 28/128/258 89/215/259 92/214/260
f 51/128/261 29/120/262 95/216/263 94/215/264
f 29/136/265 8/66/266 96/218/267 95/217/268
f 8/65/269 50/53/270 93/220/271 96/219/272
f 41/60/273 51/121/274 94/222/275 90/221/276
f 50/70/277 42/134/278 91/224/279 93/223/280
